<svg xmlns="http://www.w3.org/2000/svg" width="100" height="80" xml:space="preserve"><path d="M16.969 60.896h-4.216c-1.593 0-2.81.428-3.654 1.282-.843.854-1.264 2.126-1.264 3.812v10.715H2.916V65.99c0-2.39.756-4.247 2.266-5.57 1.511-1.323 3.684-1.984 6.518-1.984h5.27v2.46zM31.725 65.11c0-1.687-.439-2.926-1.318-3.723-.878-.797-2.02-1.195-3.425-1.195-1.054 0-2.084.158-3.091.473-1.007.318-1.91.744-2.705 1.284l-1.23-2.11a9.513 9.513 0 0 1 1.704-.911 15.028 15.028 0 0 1 1.915-.649 16.743 16.743 0 0 1 1.95-.405 12.564 12.564 0 0 1 1.809-.141c1.498 0 2.822.175 3.97.526 1.148.354 2.12.855 2.916 1.512a6.503 6.503 0 0 1 1.811 2.337c.409.9.615 1.903.615 3.003v11.595h-9.838c-3.185 0-5.533-.479-7.044-1.44-1.511-.96-2.266-2.413-2.266-4.356 0-1.942.755-3.396 2.266-4.356 1.511-.96 3.859-1.441 7.044-1.441h4.917zm-8.959 5.798c0 2.225 1.346 3.337 4.04 3.337h4.919V67.57h-4.919c-2.694 0-4.04 1.114-4.04 3.338zM51.222 76.705c-1.614 0-3.085-.211-4.408-.633-1.324-.421-2.454-1.031-3.39-1.827a8.067 8.067 0 0 1-2.162-2.882c-.503-1.125-.755-2.388-.755-3.793s.251-2.67.755-3.795a8.043 8.043 0 0 1 2.162-2.88c.936-.796 2.066-1.406 3.39-1.828 1.323-.421 2.794-.632 4.408-.632h4.394v-6.323h4.918v24.593h-9.312zm4.393-2.46v-13.35h-4.394c-.796 0-1.527.121-2.195.368a4.221 4.221 0 0 0-1.72 1.179c-.482.536-.857 1.227-1.125 2.069-.269.844-.404 1.863-.404 3.059s.135 2.213.404 3.057c.268.843.643 1.533 1.125 2.071a4.221 4.221 0 0 0 1.72 1.179 6.323 6.323 0 0 0 2.195.368h4.394zM70.723 54.044c0 .702-.242 1.318-.722 1.845-.479.528-1.118.79-1.914.79-.797 0-1.438-.262-1.915-.79a2.65 2.65 0 0 1-.721-1.845c0-.703.239-1.318.721-1.845.478-.527 1.118-.789 1.915-.789.773 0 1.403.262 1.897.789.493.527.739 1.142.739 1.845zm-.178 22.661h-4.919V58.787h4.919v17.918zM85.478 57.732c1.568 0 3.016.218 4.339.649 1.322.435 2.452 1.068 3.392 1.898.935.831 1.666 1.861 2.194 3.093.528 1.229.791 2.627.791 4.197 0 1.593-.263 2.998-.791 4.217-.528 1.216-1.26 2.243-2.194 3.073-.939.831-2.069 1.463-3.392 1.898-1.323.432-2.771.649-4.339.649-1.593 0-3.046-.218-4.357-.649-1.312-.436-2.437-1.067-3.371-1.898-.938-.83-1.67-1.857-2.196-3.073-.528-1.219-.791-2.624-.791-4.217 0-1.57.263-2.969.791-4.197.526-1.231 1.258-2.262 2.196-3.093.935-.83 2.059-1.464 3.371-1.898 1.311-.431 2.764-.649 4.357-.649zm0 17.391c.748 0 1.451-.139 2.107-.42s1.229-.721 1.721-1.319c.494-.595.885-1.375 1.179-2.336.291-.958.439-2.119.439-3.478s-.148-2.518-.439-3.479c-.294-.96-.685-1.739-1.179-2.338-.491-.594-1.064-1.035-1.721-1.316s-1.359-.42-2.107-.42c-.75 0-1.453.139-2.107.42-.656.281-1.229.723-1.724 1.316-.491.599-.884 1.378-1.176 2.338-.293.961-.439 2.12-.439 3.479s.146 2.52.439 3.478c.292.961.685 1.741 1.176 2.336.494.599 1.067 1.038 1.724 1.319.653.281 1.357.42 2.107.42zM17.373 3.144v46.378H2.916V3.144h14.457zM36.667 3.144v46.378H22.21V3.144h14.457zM97.209 40.495H89.95v9.027H77.382v-9.027H41.565V24.799L74.254 3.851H89.95v27.144h7.259v9.5zM77.382 14.768 51.654 30.995h25.728V14.768z"/></svg>