<svg xmlns="http://www.w3.org/2000/svg" xmlns:xlink="http://www.w3.org/1999/xlink" viewBox="0 0 50 50">
  <g>
    <path d="M9.76,35.036H7.789c-0.745,0-1.314,0.2-1.709,0.601c-0.395,0.399-0.592,0.994-0.592,1.782v5.012h-2.3v-5.012c0-1.117,0.353-1.985,1.06-2.604c0.707-0.619,1.723-0.928,3.048-0.928H9.76V35.036z"/>
    <path d="M16.662,37.008c0-0.788-0.206-1.369-0.616-1.741c-0.411-0.372-0.945-0.559-1.603-0.559c-0.493,0-0.975,0.073-1.446,0.222s-0.893,0.348-1.265,0.6l-0.575-0.986c0.241-0.164,0.507-0.307,0.797-0.427s0.589-0.222,0.896-0.304s0.611-0.146,0.912-0.189c0.301-0.043,0.583-0.065,0.846-0.065c0.701,0,1.32,0.082,1.857,0.246c0.537,0.165,0.991,0.4,1.364,0.707c0.372,0.307,0.654,0.671,0.846,1.093c0.191,0.422,0.288,0.891,0.288,1.404v5.423h-4.601c-1.49,0-2.588-0.225-3.294-0.674c-0.707-0.448-1.06-1.128-1.06-2.037s0.354-1.589,1.06-2.038s1.805-0.674,3.294-0.674H16.662L16.662,37.008z M12.471,39.72c0,1.04,0.63,1.561,1.89,1.561h2.301v-3.122h-2.301C13.101,38.158,12.471,38.679,12.471,39.72z"/>
    <path d="M25.781,42.431c-0.756,0-1.444-0.099-2.062-0.296c-0.619-0.197-1.147-0.482-1.585-0.854c-0.438-0.372-0.775-0.821-1.011-1.347c-0.236-0.526-0.354-1.118-0.354-1.775s0.118-1.248,0.354-1.774c0.235-0.526,0.572-0.976,1.011-1.348c0.438-0.372,0.966-0.657,1.585-0.854c0.619-0.197,1.306-0.295,2.062-0.295h2.054v-2.959h2.3v11.503H25.781z M27.835,41.28v-6.244h-2.054c-0.373,0-0.715,0.058-1.027,0.173s-0.581,0.299-0.805,0.551s-0.4,0.574-0.526,0.969s-0.188,0.871-0.188,1.43s0.062,1.035,0.188,1.43s0.301,0.718,0.526,0.97s0.493,0.435,0.805,0.55s0.655,0.173,1.027,0.173H27.835z"/>
    <path d="M34.9,31.832c0,0.328-0.112,0.616-0.337,0.863c-0.224,0.246-0.522,0.369-0.896,0.369c-0.372,0-0.671-0.123-0.896-0.369c-0.225-0.247-0.337-0.535-0.337-0.863s0.112-0.616,0.337-0.862c0.225-0.247,0.523-0.37,0.896-0.37c0.361,0,0.657,0.123,0.888,0.37C34.785,31.216,34.9,31.504,34.9,31.832z M34.818,42.431h-2.301v-8.38h2.301V42.431z"/>
    <path d="M41.802,33.558c0.733,0,1.411,0.102,2.029,0.304c0.619,0.203,1.147,0.498,1.586,0.887c0.438,0.39,0.78,0.871,1.026,1.447c0.247,0.574,0.37,1.229,0.37,1.963c0,0.745-0.123,1.402-0.37,1.973c-0.246,0.569-0.588,1.049-1.026,1.438s-0.967,0.685-1.586,0.887c-0.618,0.203-1.296,0.305-2.029,0.305c-0.745,0-1.424-0.102-2.038-0.305c-0.613-0.202-1.139-0.498-1.576-0.887c-0.439-0.389-0.781-0.868-1.027-1.438c-0.246-0.57-0.37-1.228-0.37-1.973c0-0.733,0.124-1.389,0.37-1.963c0.246-0.576,0.588-1.058,1.027-1.447c0.438-0.389,0.963-0.684,1.576-0.887C40.378,33.659,41.057,33.558,41.802,33.558z M41.802,41.691c0.351,0,0.679-0.066,0.985-0.197s0.576-0.337,0.807-0.616c0.229-0.279,0.412-0.644,0.55-1.093c0.137-0.449,0.205-0.991,0.205-1.627c0-0.635-0.068-1.178-0.205-1.627c-0.138-0.449-0.321-0.812-0.55-1.092c-0.23-0.279-0.5-0.485-0.807-0.617c-0.307-0.131-0.635-0.197-0.985-0.197s-0.679,0.066-0.985,0.197c-0.307,0.132-0.576,0.338-0.806,0.617s-0.413,0.643-0.55,1.092c-0.138,0.449-0.206,0.992-0.206,1.627c0,0.636,0.068,1.178,0.206,1.627c0.137,0.449,0.32,0.813,0.55,1.093s0.499,0.485,0.806,0.616S41.451,41.691,41.802,41.691z"/>
  </g>
  <g>
    <path d="M29.41,24.677h-3.42v4.255h-5.923v-4.255H3.188V17.28l15.405-9.872h7.397V20.2h3.42V24.677z M20.067,12.552L7.942,20.2H7.97h12.097V12.552L20.067,12.552z"/>
  </g>
  <g>
    <path d="M37.721,7.241v21.856h-6.812V7.241H37.721z"/>
    <path d="M46.813,7.241v21.856H40V7.241H46.813z"/>
  </g>
</svg>
